<svg xmlns="http://www.w3.org/2000/svg" xmlns:xlink="http://www.w3.org/1999/xlink" width="400" zoomAndPan="magnify" viewBox="0 0 300 74.999997" height="100" preserveAspectRatio="xMidYMid meet" version="1.0"><defs><g/><clipPath id="ba6e0ad0a6"><path d="M 286 5 L 293.25 5 L 293.25 13 L 286 13 Z M 286 5 " clip-rule="nonzero"/></clipPath><clipPath id="9adf64bbbd"><path d="M 173.25 8 L 291 8 L 291 24.71875 L 173.25 24.71875 Z M 173.25 8 " clip-rule="nonzero"/></clipPath><clipPath id="8033f2549e"><path d="M 286 5 L 293.25 5 L 293.25 13 L 286 13 Z M 286 5 " clip-rule="nonzero"/></clipPath><clipPath id="2a2c71435d"><path d="M 173.25 8 L 291 8 L 291 24.71875 L 173.25 24.71875 Z M 173.25 8 " clip-rule="nonzero"/></clipPath><clipPath id="c199965c9d"><path d="M 257 0.71875 L 264 0.71875 L 264 8 L 257 8 Z M 257 0.71875 " clip-rule="nonzero"/></clipPath><clipPath id="e055c2e62b"><path d="M 173.25 3 L 261 3 L 261 19 L 173.25 19 Z M 173.25 3 " clip-rule="nonzero"/></clipPath></defs><g fill="#ffd700" fill-opacity="1"><g transform="translate(5.169375, 72.532896)"><g><path d="M 67.90625 -55.328125 L 67.90625 -10.96875 C 67.90625 -10.96875 67.953125 -10.445312 68.046875 -9.40625 C 68.140625 -8.363281 68.4375 -7.023438 68.9375 -5.390625 C 69.445312 -3.753906 70.269531 -2.050781 71.40625 -0.28125 L 52.78125 -0.28125 C 55.175781 -3.625 56.375 -7.1875 56.375 -10.96875 L 56.375 -44.921875 L 39.0625 0.1875 C 36.351562 0.375 34.050781 -0.207031 32.15625 -1.5625 C 30.257812 -2.914062 28.84375 -4.632812 27.90625 -6.71875 L 12.953125 -43.125 L 12.953125 -13.53125 C 12.953125 -10.5625 13.21875 -8.128906 13.75 -6.234375 C 14.289062 -4.347656 15.222656 -2.363281 16.546875 -0.28125 L 1.609375 -0.28125 C 2.554688 -1.726562 3.25 -3.050781 3.6875 -4.25 C 4.125 -5.445312 4.4375 -6.753906 4.625 -8.171875 C 4.820312 -9.597656 4.953125 -11.382812 5.015625 -13.53125 L 5.015625 -52.78125 C 5.015625 -55.863281 4.757812 -58.332031 4.25 -60.1875 C 3.75 -62.050781 2.898438 -63.992188 1.703125 -66.015625 L 14.65625 -66.015625 L 38.78125 -16.734375 L 56.46875 -66.015625 L 71.40625 -66.015625 C 70.269531 -64.253906 69.460938 -62.535156 68.984375 -60.859375 C 68.515625 -59.191406 68.21875 -57.851562 68.09375 -56.84375 C 67.96875 -55.832031 67.90625 -55.328125 67.90625 -55.328125 Z M 67.90625 -55.328125 "/></g></g></g><g fill="#ffd700" fill-opacity="1"><g transform="translate(78.177719, 72.532896)"><g><path d="M 40.296875 -12.484375 C 40.296875 -12.171875 40.359375 -11.539062 40.484375 -10.59375 C 40.609375 -9.644531 40.90625 -8.570312 41.375 -7.375 C 41.851562 -6.175781 42.625 -5.164062 43.6875 -4.34375 L 33.390625 0.09375 C 33.390625 0.09375 33.039062 -0.0625 32.34375 -0.375 C 31.65625 -0.6875 30.960938 -1.300781 30.265625 -2.21875 C 29.566406 -3.132812 29.21875 -4.472656 29.21875 -6.234375 L 29.21875 -7.9375 C 28.78125 -7.4375 28.070312 -6.726562 27.09375 -5.8125 C 26.113281 -4.894531 24.976562 -3.929688 23.6875 -2.921875 C 22.394531 -1.921875 21.039062 -1.070312 19.625 -0.375 C 18.207031 0.3125 16.835938 0.65625 15.515625 0.65625 C 14.128906 0.65625 12.566406 0.125 10.828125 -0.9375 C 9.097656 -2.007812 7.457031 -3.378906 5.90625 -5.046875 C 4.363281 -6.722656 3.101562 -8.503906 2.125 -10.390625 C 1.144531 -12.285156 0.65625 -14.054688 0.65625 -15.703125 C 0.65625 -16.773438 0.890625 -17.734375 1.359375 -18.578125 C 1.835938 -19.429688 2.613281 -20.144531 3.6875 -20.71875 C 6.394531 -22.101562 9.296875 -23.566406 12.390625 -25.109375 C 15.484375 -26.648438 18.445312 -28.128906 21.28125 -29.546875 C 24.113281 -30.972656 26.601562 -32.191406 28.75 -33.203125 C 28.75 -33.703125 28.71875 -34.488281 28.65625 -35.5625 C 28.59375 -36.632812 28.4375 -37.738281 28.1875 -38.875 C 27.9375 -40.007812 27.570312 -40.96875 27.09375 -41.75 C 26.625 -42.539062 26.039062 -42.9375 25.34375 -42.9375 C 22.445312 -42.9375 19.753906 -41.941406 17.265625 -39.953125 C 14.773438 -37.972656 12.863281 -35.59375 11.53125 -32.8125 L 6.8125 -44.359375 C 9.519531 -47.003906 12.703125 -48.578125 16.359375 -49.078125 C 20.015625 -49.585938 23.578125 -49.148438 27.046875 -47.765625 C 30.328125 -46.503906 32.863281 -45.144531 34.65625 -43.6875 C 36.457031 -42.238281 37.765625 -40.851562 38.578125 -39.53125 C 39.398438 -38.207031 39.890625 -37.023438 40.046875 -35.984375 C 40.210938 -34.941406 40.296875 -34.203125 40.296875 -33.765625 C 40.296875 -29.984375 40.296875 -26.4375 40.296875 -23.125 C 40.296875 -19.8125 40.296875 -16.265625 40.296875 -12.484375 Z M 21.09375 -9.640625 C 22.601562 -9.640625 24.113281 -9.765625 25.625 -10.015625 C 27.144531 -10.273438 28.34375 -10.59375 29.21875 -10.96875 L 28.75 -29.796875 C 28.125 -29.410156 26.894531 -28.664062 25.0625 -27.5625 C 23.238281 -26.46875 20.398438 -24.753906 16.546875 -22.421875 C 15.285156 -21.597656 14.382812 -20.648438 13.84375 -19.578125 C 13.3125 -18.503906 13.046875 -17.398438 13.046875 -16.265625 C 13.046875 -14.816406 13.441406 -13.476562 14.234375 -12.25 C 15.023438 -11.019531 15.988281 -10.28125 17.125 -10.03125 C 18.257812 -9.769531 19.582031 -9.640625 21.09375 -9.640625 Z M 21.09375 -9.640625 "/></g></g></g><g fill="#ffd700" fill-opacity="1"><g transform="translate(122.909512, 72.532896)"><g><path d="M 55.703125 0.09375 C 57.347656 -4.125 58.34375 -7.003906 58.6875 -8.546875 C 59.03125 -10.097656 59.203125 -10.96875 59.203125 -11.15625 L 59.203125 -29.703125 C 59.203125 -30.203125 59.140625 -30.957031 59.015625 -31.96875 C 58.890625 -32.976562 58.570312 -34.019531 58.0625 -35.09375 C 57.5625 -36.164062 56.742188 -37.078125 55.609375 -37.828125 C 54.472656 -38.585938 52.863281 -38.96875 50.78125 -38.96875 C 47.945312 -38.96875 45.175781 -38.398438 42.46875 -37.265625 L 42.5625 -10.875 C 42.5625 -10.3125 42.734375 -9.128906 43.078125 -7.328125 C 43.421875 -5.535156 44.414062 -3.0625 46.0625 0.09375 L 28.9375 0.09375 C 30.582031 -4.125 31.578125 -7.003906 31.921875 -8.546875 C 32.265625 -10.097656 32.4375 -10.96875 32.4375 -11.15625 L 32.4375 -31.78125 C 32.4375 -31.78125 32.375 -32.15625 32.25 -32.90625 C 32.125 -33.664062 31.789062 -34.535156 31.25 -35.515625 C 30.71875 -36.492188 29.835938 -37.359375 28.609375 -38.109375 C 27.378906 -38.867188 25.628906 -39.25 23.359375 -39.25 C 22.347656 -39.25 21.210938 -39.085938 19.953125 -38.765625 C 18.691406 -38.453125 17.304688 -37.984375 15.796875 -37.359375 L 15.984375 -11.15625 C 15.984375 -10.96875 16.03125 -10.335938 16.125 -9.265625 C 16.21875 -8.191406 16.515625 -6.835938 17.015625 -5.203125 C 17.523438 -3.566406 18.378906 -1.800781 19.578125 0.09375 L 1.328125 0.09375 C 2.460938 -1.289062 3.28125 -2.753906 3.78125 -4.296875 C 4.289062 -5.847656 4.609375 -7.222656 4.734375 -8.421875 C 4.859375 -9.617188 4.921875 -10.4375 4.921875 -10.875 C 4.921875 -14.71875 4.921875 -18.546875 4.921875 -22.359375 C 4.921875 -26.179688 4.921875 -29.984375 4.921875 -33.765625 C 4.921875 -33.765625 4.875 -34.253906 4.78125 -35.234375 C 4.6875 -36.210938 4.382812 -37.363281 3.875 -38.6875 C 3.375 -40.007812 2.523438 -41.207031 1.328125 -42.28125 C 1.328125 -42.28125 1.8125 -42.5 2.78125 -42.9375 C 3.757812 -43.375 4.957031 -43.925781 6.375 -44.59375 C 7.800781 -45.257812 9.222656 -45.921875 10.640625 -46.578125 C 12.054688 -47.242188 13.253906 -47.796875 14.234375 -48.234375 C 15.210938 -48.671875 15.703125 -48.890625 15.703125 -48.890625 L 15.703125 -40 C 16.140625 -40.507812 16.878906 -41.25 17.921875 -42.21875 C 18.960938 -43.195312 20.222656 -44.191406 21.703125 -45.203125 C 23.179688 -46.210938 24.769531 -47.078125 26.46875 -47.796875 C 28.175781 -48.523438 29.914062 -48.890625 31.6875 -48.890625 C 34.394531 -48.890625 36.503906 -48.429688 38.015625 -47.515625 C 39.535156 -46.609375 40.609375 -45.441406 41.234375 -44.015625 C 41.867188 -42.597656 42.25 -41.195312 42.375 -39.8125 C 42.625 -40.070312 43.253906 -40.6875 44.265625 -41.65625 C 45.273438 -42.632812 46.535156 -43.675781 48.046875 -44.78125 C 49.554688 -45.882812 51.191406 -46.84375 52.953125 -47.65625 C 54.722656 -48.476562 56.523438 -48.890625 58.359375 -48.890625 C 61.003906 -48.890625 63.066406 -48.460938 64.546875 -47.609375 C 66.023438 -46.765625 67.097656 -45.695312 67.765625 -44.40625 C 68.429688 -43.113281 68.84375 -41.769531 69 -40.375 C 69.15625 -38.988281 69.234375 -37.695312 69.234375 -36.5 L 69.328125 -10.875 C 69.328125 -10.3125 69.5 -9.128906 69.84375 -7.328125 C 70.1875 -5.535156 71.179688 -3.0625 72.828125 0.09375 Z M 55.703125 0.09375 "/></g></g></g><g fill="#ffd700" fill-opacity="1"><g transform="translate(196.863562, 72.532896)"><g><path d="M 46.53125 -5.203125 C 46.53125 -5.140625 46.039062 -4.898438 45.0625 -4.484375 C 44.082031 -4.078125 42.882812 -3.585938 41.46875 -3.015625 C 40.050781 -2.453125 38.632812 -1.867188 37.21875 -1.265625 C 35.800781 -0.671875 34.601562 -0.171875 33.625 0.234375 C 32.644531 0.640625 32.15625 0.84375 32.15625 0.84375 L 32.15625 -7.46875 C 31.65625 -7.03125 30.835938 -6.320312 29.703125 -5.34375 C 28.566406 -4.363281 27.238281 -3.351562 25.71875 -2.3125 C 24.207031 -1.269531 22.582031 -0.390625 20.84375 0.328125 C 19.113281 1.054688 17.398438 1.421875 15.703125 1.421875 L 15.515625 1.421875 C 12.859375 1.421875 10.789062 1.007812 9.3125 0.1875 C 7.832031 -0.632812 6.757812 -1.691406 6.09375 -2.984375 C 5.4375 -4.273438 5.03125 -5.628906 4.875 -7.046875 C 4.71875 -8.460938 4.640625 -9.738281 4.640625 -10.875 L 4.640625 -33.578125 C 4.640625 -33.578125 4.585938 -34.082031 4.484375 -35.09375 C 4.390625 -36.101562 4.09375 -37.269531 3.59375 -38.59375 C 3.09375 -39.914062 2.242188 -41.113281 1.046875 -42.1875 L 14.65625 -48.421875 L 14.65625 -16.734375 C 14.65625 -16.734375 14.71875 -16.304688 14.84375 -15.453125 C 14.96875 -14.609375 15.296875 -13.617188 15.828125 -12.484375 C 16.367188 -11.347656 17.269531 -10.351562 18.53125 -9.5 C 19.789062 -8.65625 21.585938 -8.234375 23.921875 -8.234375 C 24.992188 -8.234375 26.191406 -8.375 27.515625 -8.65625 C 28.847656 -8.9375 30.332031 -9.394531 31.96875 -10.03125 L 31.96875 -33.203125 C 31.96875 -33.203125 31.921875 -33.703125 31.828125 -34.703125 C 31.734375 -35.710938 31.429688 -36.878906 30.921875 -38.203125 C 30.421875 -39.535156 29.570312 -40.734375 28.375 -41.796875 L 42.9375 -48.421875 L 42.9375 -13.625 C 42.9375 -13.625 42.984375 -13.148438 43.078125 -12.203125 C 43.171875 -11.253906 43.46875 -10.117188 43.96875 -8.796875 C 44.476562 -7.472656 45.332031 -6.273438 46.53125 -5.203125 Z M 46.53125 -5.203125 "/></g></g></g><g fill="#ffd700" fill-opacity="1"><g transform="translate(244.527044, 72.532896)"><g><path d="M 47.578125 0 L 30.453125 0 C 32.148438 -4.226562 33.15625 -7.113281 33.46875 -8.65625 C 33.789062 -10.195312 33.953125 -11.0625 33.953125 -11.25 C 33.953125 -14.71875 33.953125 -18.171875 33.953125 -21.609375 C 33.953125 -25.046875 33.953125 -28.5 33.953125 -31.96875 C 33.953125 -31.96875 33.890625 -32.328125 33.765625 -33.046875 C 33.640625 -33.773438 33.273438 -34.628906 32.671875 -35.609375 C 32.078125 -36.585938 31.066406 -37.453125 29.640625 -38.203125 C 28.222656 -38.960938 26.222656 -39.34375 23.640625 -39.34375 C 22.566406 -39.34375 21.382812 -39.203125 20.09375 -38.921875 C 18.800781 -38.640625 17.367188 -38.148438 15.796875 -37.453125 L 15.984375 -11.25 C 15.984375 -11.0625 16.03125 -10.429688 16.125 -9.359375 C 16.21875 -8.285156 16.515625 -6.929688 17.015625 -5.296875 C 17.523438 -3.660156 18.378906 -1.894531 19.578125 0 L 1.328125 0 C 2.460938 -1.382812 3.28125 -2.832031 3.78125 -4.34375 C 4.289062 -5.863281 4.609375 -7.238281 4.734375 -8.46875 C 4.859375 -9.695312 4.921875 -10.53125 4.921875 -10.96875 C 4.921875 -14.75 4.921875 -18.5625 4.921875 -22.40625 C 4.921875 -26.257812 4.921875 -30.078125 4.921875 -33.859375 C 4.921875 -33.859375 4.875 -34.347656 4.78125 -35.328125 C 4.6875 -36.304688 4.382812 -37.457031 3.875 -38.78125 C 3.375 -40.101562 2.523438 -41.300781 1.328125 -42.375 C 1.328125 -42.375 1.8125 -42.609375 2.78125 -43.078125 C 3.757812 -43.554688 4.957031 -44.109375 6.375 -44.734375 C 7.800781 -45.367188 9.222656 -46.015625 10.640625 -46.671875 C 12.054688 -47.335938 13.253906 -47.890625 14.234375 -48.328125 C 15.210938 -48.765625 15.703125 -48.984375 15.703125 -48.984375 L 15.703125 -40 C 16.140625 -40.445312 16.988281 -41.15625 18.25 -42.125 C 19.507812 -43.101562 20.972656 -44.113281 22.640625 -45.15625 C 24.316406 -46.195312 26.050781 -47.09375 27.84375 -47.84375 C 29.644531 -48.601562 31.363281 -48.984375 33 -48.984375 C 36.21875 -48.984375 38.851562 -48.003906 40.90625 -46.046875 C 42.957031 -44.097656 43.984375 -40.984375 43.984375 -36.703125 C 43.984375 -32.410156 44 -28.117188 44.03125 -23.828125 C 44.0625 -19.546875 44.078125 -15.257812 44.078125 -10.96875 C 44.078125 -10.40625 44.265625 -9.222656 44.640625 -7.421875 C 45.015625 -5.628906 45.992188 -3.15625 47.578125 0 Z M 47.578125 0 "/></g></g></g><path fill="#00ffff" d="M 257.753906 14.203125 C 257.753906 14.480469 257.699219 14.75 257.59375 15.007812 C 257.488281 15.265625 257.335938 15.496094 257.136719 15.691406 C 256.941406 15.890625 256.710938 16.042969 256.453125 16.148438 C 256.195312 16.253906 255.929688 16.308594 255.648438 16.308594 C 255.371094 16.308594 255.101562 16.253906 254.84375 16.148438 C 254.585938 16.042969 254.359375 15.890625 254.160156 15.691406 C 253.964844 15.496094 253.8125 15.265625 253.703125 15.007812 C 253.597656 14.75 253.542969 14.480469 253.542969 14.203125 C 253.542969 13.925781 253.597656 13.65625 253.703125 13.398438 C 253.8125 13.140625 253.964844 12.910156 254.160156 12.714844 C 254.359375 12.515625 254.585938 12.363281 254.84375 12.257812 C 255.101562 12.152344 255.371094 12.097656 255.648438 12.097656 C 255.929688 12.097656 256.195312 12.152344 256.453125 12.257812 C 256.710938 12.363281 256.941406 12.515625 257.136719 12.714844 C 257.335938 12.910156 257.488281 13.140625 257.59375 13.398438 C 257.699219 13.65625 257.753906 13.925781 257.753906 14.203125 Z M 257.753906 14.203125 " fill-opacity="1" fill-rule="nonzero"/><path fill="#00ffff" d="M 255.527344 14.730469 L 174.550781 14.285156 L 255.527344 13.832031 Z M 255.527344 14.730469 " fill-opacity="1" fill-rule="nonzero"/><g clip-path="url(#ba6e0ad0a6)"><path fill="#00ffff" d="M 293.238281 8.902344 C 293.238281 9.324219 293.160156 9.730469 292.996094 10.117188 C 292.835938 10.507812 292.609375 10.851562 292.308594 11.148438 C 292.011719 11.445312 291.667969 11.675781 291.28125 11.835938 C 290.890625 11.996094 290.488281 12.078125 290.066406 12.078125 C 289.644531 12.078125 289.242188 11.996094 288.851562 11.835938 C 288.464844 11.675781 288.121094 11.445312 287.824219 11.148438 C 287.527344 10.851562 287.296875 10.507812 287.136719 10.117188 C 286.976562 9.730469 286.894531 9.324219 286.894531 8.902344 C 286.894531 8.484375 286.976562 8.078125 287.136719 7.691406 C 287.296875 7.300781 287.527344 6.957031 287.824219 6.660156 C 288.121094 6.363281 288.464844 6.132812 288.851562 5.972656 C 289.242188 5.8125 289.644531 5.730469 290.066406 5.730469 C 290.488281 5.730469 290.890625 5.8125 291.28125 5.972656 C 291.667969 6.132812 292.011719 6.363281 292.308594 6.660156 C 292.609375 6.957031 292.835938 7.300781 292.996094 7.691406 C 293.160156 8.078125 293.238281 8.484375 293.238281 8.902344 Z M 293.238281 8.902344 " fill-opacity="1" fill-rule="nonzero"/></g><g clip-path="url(#9adf64bbbd)"><path fill="#00ffff" d="M 290.097656 9.351562 L 236.726562 9.160156 L 236.933594 9.074219 L 222.261719 24.292969 L 222.199219 24.359375 L 222.113281 24.359375 L 173.25 24.148438 L 222.113281 23.9375 L 221.960938 24.003906 L 236.519531 8.675781 L 236.601562 8.589844 L 236.726562 8.589844 L 290.097656 8.457031 Z M 290.097656 9.351562 " fill-opacity="1" fill-rule="nonzero"/></g><g clip-path="url(#8033f2549e)"><path fill="#00ffff" d="M 293.238281 8.902344 C 293.238281 9.324219 293.160156 9.730469 292.996094 10.117188 C 292.835938 10.507812 292.609375 10.851562 292.308594 11.148438 C 292.011719 11.445312 291.667969 11.675781 291.28125 11.835938 C 290.890625 11.996094 290.488281 12.078125 290.066406 12.078125 C 289.644531 12.078125 289.242188 11.996094 288.851562 11.835938 C 288.464844 11.675781 288.121094 11.445312 287.824219 11.148438 C 287.527344 10.851562 287.296875 10.507812 287.136719 10.117188 C 286.976562 9.730469 286.894531 9.324219 286.894531 8.902344 C 286.894531 8.484375 286.976562 8.078125 287.136719 7.691406 C 287.296875 7.300781 287.527344 6.957031 287.824219 6.660156 C 288.121094 6.363281 288.464844 6.132812 288.851562 5.972656 C 289.242188 5.8125 289.644531 5.730469 290.066406 5.730469 C 290.488281 5.730469 290.890625 5.8125 291.28125 5.972656 C 291.667969 6.132812 292.011719 6.363281 292.308594 6.660156 C 292.609375 6.957031 292.835938 7.300781 292.996094 7.691406 C 293.160156 8.078125 293.238281 8.484375 293.238281 8.902344 Z M 293.238281 8.902344 " fill-opacity="1" fill-rule="nonzero"/></g><g clip-path="url(#2a2c71435d)"><path fill="#00ffff" d="M 290.097656 9.351562 L 236.726562 9.160156 L 236.933594 9.074219 L 222.261719 24.292969 L 222.199219 24.359375 L 222.113281 24.359375 L 173.25 24.148438 L 222.113281 23.9375 L 221.960938 24.003906 L 236.519531 8.675781 L 236.601562 8.589844 L 236.726562 8.589844 L 290.097656 8.457031 Z M 290.097656 9.351562 " fill-opacity="1" fill-rule="nonzero"/></g><g clip-path="url(#c199965c9d)"><path fill="#00ffff" d="M 263.871094 3.890625 C 263.871094 4.3125 263.789062 4.71875 263.628906 5.105469 C 263.46875 5.496094 263.238281 5.839844 262.941406 6.136719 C 262.644531 6.433594 262.300781 6.664062 261.910156 6.824219 C 261.523438 6.984375 261.117188 7.066406 260.699219 7.066406 C 260.277344 7.066406 259.871094 6.984375 259.484375 6.824219 C 259.09375 6.664062 258.753906 6.433594 258.453125 6.136719 C 258.15625 5.839844 257.929688 5.496094 257.765625 5.105469 C 257.605469 4.71875 257.527344 4.3125 257.527344 3.890625 C 257.527344 3.472656 257.605469 3.066406 257.765625 2.679688 C 257.929688 2.289062 258.15625 1.945312 258.453125 1.648438 C 258.753906 1.351562 259.09375 1.121094 259.484375 0.960938 C 259.871094 0.800781 260.277344 0.71875 260.699219 0.71875 C 261.117188 0.71875 261.523438 0.800781 261.910156 0.960938 C 262.300781 1.121094 262.644531 1.351562 262.941406 1.648438 C 263.238281 1.945312 263.46875 2.289062 263.628906 2.679688 C 263.789062 3.066406 263.871094 3.472656 263.871094 3.890625 Z M 263.871094 3.890625 " fill-opacity="1" fill-rule="nonzero"/></g><g clip-path="url(#e055c2e62b)"><path fill="#00ffff" d="M 260.148438 4.339844 L 252.421875 4.300781 L 248.5625 4.28125 L 246.628906 4.273438 L 246.183594 4.273438 C 246.175781 4.941406 246.21875 3.363281 246.183594 3.527344 L 246.1875 3.527344 L 246.667969 3.53125 L 248.597656 3.546875 L 249.085938 3.554688 L 249.113281 3.554688 C 249.152344 3.398438 249.101562 4.914062 249.105469 4.269531 L 248.632812 4.269531 L 246.703125 4.265625 L 235.113281 4.207031 L 235.316406 4.121094 L 220.644531 18.925781 L 220.582031 18.988281 L 220.496094 18.988281 L 173.609375 18.78125 L 220.496094 18.570312 L 220.347656 18.632812 L 234.90625 3.71875 L 234.992188 3.636719 L 235.113281 3.636719 L 242.835938 3.59375 L 246.699219 3.574219 L 248.628906 3.558594 L 249.078125 3.558594 C 249.085938 2.917969 249.046875 4.433594 249.078125 4.277344 L 246.148438 4.277344 C 246.109375 4.4375 246.160156 2.859375 246.15625 3.527344 L 246.628906 3.527344 L 248.558594 3.515625 L 252.421875 3.492188 L 260.148438 3.453125 Z M 260.148438 4.339844 " fill-opacity="1" fill-rule="nonzero"/></g></svg>