<svg xmlns="http://www.w3.org/2000/svg" xmlns:xlink="http://www.w3.org/1999/xlink" width="512" zoomAndPan="magnify" viewBox="0 0 384 383.999986" height="512" preserveAspectRatio="xMidYMid meet" version="1.0"><defs><g/></defs><g fill="#efb036" fill-opacity="1"><g transform="translate(-8.464856, 373.905278)"><g><path d="M 371.9375 -303.046875 L 371.9375 -60.09375 C 371.9375 -60.09375 372.191406 -57.242188 372.703125 -51.546875 C 373.222656 -45.847656 374.863281 -38.507812 377.625 -29.53125 C 380.394531 -20.550781 384.890625 -11.222656 391.109375 -1.546875 L 289.046875 -1.546875 C 302.171875 -19.859375 308.734375 -39.375 308.734375 -60.09375 L 308.734375 -246.0625 L 213.9375 1.03125 C 199.09375 2.070312 186.488281 -1.117188 176.125 -8.546875 C 165.757812 -15.972656 157.988281 -25.382812 152.8125 -36.78125 L 70.96875 -236.21875 L 70.96875 -74.078125 C 70.96875 -57.847656 72.4375 -44.550781 75.375 -34.1875 C 78.3125 -23.832031 83.40625 -12.953125 90.65625 -1.546875 L 8.8125 -1.546875 C 13.988281 -9.492188 17.785156 -16.75 20.203125 -23.3125 C 22.617188 -29.875 24.34375 -37.039062 25.375 -44.8125 C 26.414062 -52.582031 27.109375 -62.335938 27.453125 -74.078125 L 27.453125 -289.046875 C 27.453125 -305.972656 26.070312 -319.53125 23.3125 -329.71875 C 20.550781 -339.90625 15.890625 -350.523438 9.328125 -361.578125 L 80.296875 -361.578125 L 212.390625 -91.6875 L 309.25 -361.578125 L 391.109375 -361.578125 C 384.890625 -351.910156 380.484375 -342.5 377.890625 -333.34375 C 375.296875 -324.1875 373.65625 -316.847656 372.96875 -311.328125 C 372.28125 -305.804688 371.9375 -303.046875 371.9375 -303.046875 Z M 371.9375 -303.046875 "/></g></g></g></svg>